<?xml version="1.0" encoding="UTF-8"?>
<svg width="132px" height="133px" viewBox="0 0 132 133" version="1.1" xmlns="http://www.w3.org/2000/svg" xmlns:xlink="http://www.w3.org/1999/xlink">
    <!-- Generator: Sketch 50.2 (55047) - http://www.bohemiancoding.com/sketch -->
    <title>Arrow</title>
    <desc>Created with Sketch.</desc>
    <defs></defs>
    <g id="Arrow" stroke="none" stroke-width="1" fill="none" fill-rule="evenodd">
        <g id="fail" transform="translate(1.000000, 2.000000)" fill="#FFFFFF">
            <path d="M25.6835854,25.6835854 C27.4388049,23.9238655 27.4388049,21.0750094 25.6835854,19.31979 C23.9238655,17.56007 21.0750094,17.56007 19.31979,19.31979 C17.56007,21.0750094 17.56007,23.9238655 19.31979,25.6835854 C21.0750094,27.4388049 23.9238655,27.4388049 25.6835854,25.6835854" id="Fill-1"></path>
            <path d="M65,130 C100.841,130 130,100.841 130,65 C130,29.159 100.841,0 65,0 C54.6441071,0 44.3337143,2.50621429 35.1831071,7.24796429 C32.9067143,8.42771429 32.0171429,11.2296786 33.1968929,13.5065357 C34.3771071,15.7833929 37.1786071,16.6725 39.4554643,15.49275 C47.4035714,11.3740714 55.9979643,9.28571429 65,9.28571429 C95.7208571,9.28571429 120.714286,34.2791429 120.714286,65 C120.714286,95.7208571 95.7208571,120.714286 65,120.714286 C34.2791429,120.714286 9.28571429,95.7208571 9.28571429,65 C9.28571429,56.00075 11.3740714,47.40775 15.49275,39.4601071 C16.6729643,37.18325 15.7833929,34.38175 13.507,33.202 C11.2301429,32.0217857 8.42864286,32.9113571 7.24842857,35.18775 C2.50621429,44.3383571 0,54.6468929 0,65 C0,100.841 29.159,130 65,130" id="Fill-6"></path>
            <path d="M67.8764895,99.9533105 L88.4728421,79.3554632 C89.9077895,77.9205158 89.9077895,75.6186211 88.4728421,74.1836737 C87.0378947,72.7491 84.736,72.7491 83.3010526,74.1836737 L68.9523263,88.5342684 L68.9523263,33.6770526 C68.9523263,31.6438368 67.3088632,30 65.2752737,30 C63.2420579,30 61.5982211,31.6438368 61.5982211,33.6770526 L61.5982211,88.5036263 L47.2494947,74.1545263 C45.8130526,72.7195789 43.5126526,72.7195789 42.0762105,74.1545263 C40.6412632,75.5894737 40.6412632,77.8913684 42.0762105,79.3263158 L62.6740579,99.9226684 C63.3922789,100.640889 64.3193895,101 65.2752737,101 C66.2315316,101 67.1582684,100.670037 67.8764895,99.9533105 Z" id="Fill-4"></path>
        </g>
    </g>
</svg>