<?xml version="1.0" encoding="UTF-8"?>
<svg width="113px" height="121px" viewBox="0 0 113 121" version="1.1" xmlns="http://www.w3.org/2000/svg" xmlns:xlink="http://www.w3.org/1999/xlink">
    <!-- Generator: Sketch 50.2 (55047) - http://www.bohemiancoding.com/sketch -->
    <title>calendar</title>
    <desc>Created with Sketch.</desc>
    <defs>
        <polygon id="path-1" points="0 0 112.802332 0 112.802332 120.980164 0 120.980164"></polygon>
    </defs>
    <g id="calendar" stroke="none" stroke-width="1" fill="none" fill-rule="evenodd">
        <g>
            <g id="Group-3">
                <mask id="mask-2" fill="white">
                    <use xlink:href="#path-1"></use>
                </mask>
                <g id="Clip-2"></g>
                <path d="M103.841399,112.139891 C101.205831,114.784699 97.516035,116.371585 93.5626822,116.371585 L19.503207,116.371585 C15.5498542,116.371585 11.8600583,114.784699 9.2244898,112.139891 C6.58892128,109.495082 5.00758017,105.79235 5.00758017,101.825137 L5.00758017,43.242623 L108.058309,43.242623 L108.058309,101.692896 C108.058309,105.79235 106.476968,109.495082 103.841399,112.139891 Z M5.00758017,27.5060109 C5.00758017,23.5387978 6.58892128,19.8360656 9.2244898,17.1912568 C11.8600583,14.5464481 15.5498542,12.9595628 19.503207,12.9595628 L27.6734694,12.9595628 L27.6734694,18.3814208 C27.6734694,19.7038251 28.7276968,20.8939891 30.1772595,20.8939891 C31.4950437,20.8939891 32.6810496,19.8360656 32.6810496,18.3814208 L32.6810496,12.9595628 L80.5166181,12.9595628 L80.5166181,18.3814208 C80.5166181,19.7038251 81.5708455,20.8939891 83.0204082,20.8939891 C84.3381924,20.8939891 85.5241983,19.8360656 85.5241983,18.3814208 L85.5241983,12.9595628 L93.6944606,12.9595628 C97.6478134,12.9595628 101.337609,14.5464481 103.973178,17.1912568 C105.949854,19.1748634 107.399417,21.6874317 107.926531,24.5967213 C108.058309,25.5224044 108.190087,26.5803279 108.190087,27.5060109 L108.190087,38.3497268 L5.00758017,38.3497268 L5.00758017,27.5060109 Z M107.267638,13.7530055 C103.709621,10.1825137 98.8338192,8.06666667 93.5626822,8.06666667 L85.3924198,8.06666667 L85.3924198,2.51256831 C85.3924198,1.19016393 84.3381924,0 82.8886297,0 C81.5708455,0 80.3848397,1.0579235 80.3848397,2.51256831 L80.3848397,7.93442623 L32.6810496,7.93442623 L32.6810496,2.51256831 C32.6810496,1.19016393 31.6268222,0 30.1772595,0 C28.8594752,0 27.6734694,1.0579235 27.6734694,2.51256831 L27.6734694,7.93442623 L19.503207,7.93442623 C15.4180758,7.93442623 11.7282799,9.12459016 8.56559767,11.2404372 C7.51137026,11.9016393 6.58892128,12.695082 5.6664723,13.620765 C2.10845481,17.1912568 0,22.084153 0,27.3737705 L0,101.560656 C0,106.982514 2.24023324,111.87541 5.6664723,115.313661 C9.2244898,118.884153 14.1002915,121 19.3714286,121 L93.4309038,121 C98.8338192,121 103.709621,118.751913 107.13586,115.313661 C110.693878,111.743169 112.802332,106.850273 112.802332,101.560656 L112.802332,27.6382514 C112.802332,25.6546448 112.538776,23.6710383 111.879883,21.8196721 C111.220991,18.6459016 109.507872,15.8688525 107.267638,13.7530055 Z" id="Fill-1" fill="#929292" mask="url(#mask-2)"></path>
            </g>
            <path d="M26.0338983,60.1694915 C25.4915254,60.7118644 24.8135593,60.9830508 23.8644068,60.9830508 C23.0508475,60.9830508 22.2372881,60.7118644 21.6949153,60.1694915 C21.1525424,59.6271186 20.8813559,58.9491525 20.8813559,58 C20.8813559,57.1864407 21.1525424,56.3728814 21.6949153,55.8305085 C22.2372881,55.2881356 22.9152542,55.0169492 23.8644068,55.0169492 C24.6779661,55.0169492 25.4915254,55.2881356 26.0338983,55.8305085 C26.5762712,56.3728814 26.8474576,57.0508475 26.8474576,58 C26.9830508,58.9491525 26.5762712,59.6271186 26.0338983,60.1694915 Z M24,50 C21.8305085,50 19.7966102,50.9491525 18.3050847,52.3050847 C16.8135593,53.7966102 16,55.8305085 16,58 C16,60.1694915 16.9491525,62.2033898 18.3050847,63.6949153 C19.7966102,65.1864407 21.8305085,66 24,66 C26.1694915,66 28.2033898,65.0508475 29.6949153,63.6949153 C31.1864407,62.2033898 32,60.1694915 32,58 C32,55.8305085 31.0508475,53.7966102 29.6949153,52.3050847 C28.2033898,50.9491525 26.1694915,50 24,50 Z" id="Fill-4" fill="#929292"></path>
            <path d="M48.1694915,60.1694915 C47.6271186,60.7118644 46.9491525,60.9830508 46,60.9830508 C45.1864407,60.9830508 44.3728814,60.7118644 43.8305085,60.1694915 C43.2881356,59.6271186 43.0169492,58.9491525 43.0169492,58 C43.0169492,57.1864407 43.2881356,56.3728814 43.8305085,55.8305085 C44.3728814,55.2881356 45.0508475,55.0169492 46,55.0169492 C46.8135593,55.0169492 47.6271186,55.2881356 48.1694915,55.8305085 C48.7118644,56.3728814 48.9830508,57.0508475 48.9830508,58 C48.9830508,58.9491525 48.7118644,59.6271186 48.1694915,60.1694915 Z M46,50 C43.8305085,50 41.7966102,50.9491525 40.3050847,52.3050847 C38.8135593,53.7966102 38,55.8305085 38,58 C38,60.1694915 38.9491525,62.2033898 40.3050847,63.6949153 C41.7966102,65.1864407 43.8305085,66 46,66 C48.1694915,66 50.2033898,65.0508475 51.6949153,63.6949153 C53.1864407,62.2033898 54,60.1694915 54,58 C54,55.8305085 53.0508475,53.7966102 51.6949153,52.3050847 C50.3389831,50.8135593 48.3050847,50 46,50 Z" id="Fill-5" fill="#929292"></path>
            <path d="M70.0338983,60.1694915 C69.4915254,60.7118644 68.8135593,60.9830508 67.8644068,60.9830508 C67.0508475,60.9830508 66.2372881,60.7118644 65.6949153,60.1694915 C65.2881356,59.6271186 65.0169492,58.9491525 65.0169492,58.1355932 C65.0169492,57.3220339 65.2881356,56.5084746 65.8305085,55.9661017 C66.3728814,55.4237288 67.0508475,55.1525424 68,55.1525424 C68.8135593,55.1525424 69.6271186,55.4237288 70.1694915,55.9661017 C70.7118644,56.5084746 70.9830508,57.1864407 70.9830508,58.1355932 C70.9830508,58.9491525 70.5762712,59.6271186 70.0338983,60.1694915 Z M68,50 C65.8305085,50 63.7966102,50.9491525 62.3050847,52.3050847 C60.8135593,53.6610169 60,55.8305085 60,58 C60,60.1694915 60.9491525,62.2033898 62.3050847,63.6949153 C63.7966102,65.1864407 65.8305085,66 68,66 C70.1694915,66 72.2033898,65.0508475 73.6949153,63.6949153 C75.1864407,62.2033898 76,60.1694915 76,58 C76,55.8305085 75.0508475,53.7966102 73.6949153,52.3050847 C72.3389831,50.8135593 70.1694915,50 68,50 Z" id="Fill-6" fill="#929292"></path>
            <path d="M91.1694915,60.1694915 C90.6271186,60.7118644 89.9491525,60.9830508 89,60.9830508 C88.1864407,60.9830508 87.3728814,60.7118644 86.8305085,60.1694915 C86.2881356,59.6271186 86.0169492,58.9491525 86.0169492,58 C86.0169492,57.1864407 86.2881356,56.3728814 86.8305085,55.8305085 C87.3728814,55.2881356 88.0508475,55.0169492 89,55.0169492 C89.8135593,55.0169492 90.6271186,55.2881356 91.1694915,55.8305085 C91.7118644,56.3728814 91.9830508,57.0508475 91.9830508,58 C91.9830508,58.9491525 91.7118644,59.6271186 91.1694915,60.1694915 Z M89,50 C86.8305085,50 84.7966102,50.9491525 83.3050847,52.3050847 C81.8135593,53.7966102 81,55.8305085 81,58 C81,60.1694915 81.9491525,62.2033898 83.3050847,63.6949153 C84.7966102,65.1864407 86.8305085,66 89,66 C91.1694915,66 93.2033898,65.0508475 94.6949153,63.6949153 C96.1864407,62.2033898 97,60.1694915 97,58 C97,55.8305085 96.0508475,53.7966102 94.6949153,52.3050847 C93.3389831,50.9491525 91.3050847,50 89,50 Z" id="Fill-7" fill="#929292"></path>
            <path d="M26.0338983,82.1694915 C25.4915254,82.7118644 24.8135593,82.9830508 23.8644068,82.9830508 C23.0508475,82.9830508 22.2372881,82.7118644 21.6949153,82.1694915 C21.1525424,81.6271186 20.8813559,80.9491525 20.8813559,80 C20.8813559,79.1864407 21.1525424,78.3728814 21.6949153,77.8305085 C22.2372881,77.2881356 22.9152542,77.0169492 23.8644068,77.0169492 C24.6779661,77.0169492 25.4915254,77.2881356 26.0338983,77.8305085 C26.5762712,78.3728814 26.8474576,79.0508475 26.8474576,80 C26.9830508,80.8135593 26.5762712,81.6271186 26.0338983,82.1694915 Z M24,72 C21.8305085,72 19.7966102,72.9491525 18.3050847,74.3050847 C16.8135593,75.7966102 16,77.8305085 16,80 C16,82.1694915 16.9491525,84.2033898 18.3050847,85.6949153 C19.7966102,87.1864407 21.8305085,88 24,88 C26.1694915,88 28.2033898,87.0508475 29.6949153,85.6949153 C31.1864407,84.2033898 32,82.1694915 32,80 C32,77.8305085 31.0508475,75.7966102 29.6949153,74.3050847 C28.2033898,72.8135593 26.1694915,72 24,72 Z" id="Fill-8" fill="#929292"></path>
            <path d="M48.1694915,82.1694915 C47.6271186,82.7118644 46.9491525,82.9830508 46,82.9830508 C45.1864407,82.9830508 44.3728814,82.7118644 43.8305085,82.1694915 C43.2881356,81.6271186 43.0169492,80.9491525 43.0169492,80 C43.0169492,79.1864407 43.2881356,78.3728814 43.8305085,77.8305085 C44.3728814,77.2881356 45.0508475,77.0169492 46,77.0169492 C46.8135593,77.0169492 47.6271186,77.2881356 48.1694915,77.8305085 C48.7118644,78.3728814 48.9830508,79.0508475 48.9830508,80 C48.9830508,80.8135593 48.7118644,81.6271186 48.1694915,82.1694915 Z M46,72 C43.8305085,72 41.7966102,72.9491525 40.3050847,74.3050847 C38.8135593,75.7966102 38,77.8305085 38,80 C38,82.1694915 38.9491525,84.2033898 40.3050847,85.6949153 C41.7966102,87.1864407 43.8305085,88 46,88 C48.1694915,88 50.2033898,87.0508475 51.6949153,85.6949153 C53.1864407,84.3389831 54,82.1694915 54,80 C54,77.8305085 53.0508475,75.7966102 51.6949153,74.3050847 C50.3389831,72.8135593 48.3050847,72 46,72 Z" id="Fill-9" fill="#929292"></path>
            <path d="M70.0338983,82.1694915 C69.4915254,82.7118644 68.8135593,82.9830508 67.8644068,82.9830508 C67.0508475,82.9830508 66.2372881,82.7118644 65.6949153,82.1694915 C65.1525424,81.6271186 64.8813559,80.9491525 64.8813559,80 C64.8813559,79.1864407 65.1525424,78.3728814 65.6949153,77.8305085 C66.2372881,77.2881356 66.9152542,77.0169492 67.8644068,77.0169492 C68.6779661,77.0169492 69.4915254,77.2881356 70.0338983,77.8305085 C70.5762712,78.3728814 70.8474576,79.0508475 70.8474576,80 C70.9830508,80.8135593 70.5762712,81.6271186 70.0338983,82.1694915 Z M68,72 C65.8305085,72 63.7966102,72.9491525 62.3050847,74.3050847 C60.8135593,75.6610169 60,77.8305085 60,80 C60,82.1694915 60.9491525,84.2033898 62.3050847,85.6949153 C63.6610169,87.1864407 65.8305085,88 68,88 C70.1694915,88 72.2033898,87.0508475 73.6949153,85.6949153 C75.1864407,84.3389831 76,82.1694915 76,80 C76,77.8305085 75.0508475,75.7966102 73.6949153,74.3050847 C72.3389831,72.8135593 70.1694915,72 68,72 Z" id="Fill-10" fill="#929292"></path>
            <path d="M91.1694915,82.1694915 C90.6271186,82.7118644 89.9491525,82.9830508 89,82.9830508 C88.1864407,82.9830508 87.3728814,82.7118644 86.8305085,82.1694915 C86.2881356,81.6271186 86.0169492,80.9491525 86.0169492,80 C86.0169492,79.1864407 86.2881356,78.3728814 86.8305085,77.8305085 C87.3728814,77.2881356 88.0508475,77.0169492 89,77.0169492 C89.8135593,77.0169492 90.6271186,77.2881356 91.1694915,77.8305085 C91.7118644,78.3728814 91.9830508,79.0508475 91.9830508,80 C91.9830508,80.8135593 91.7118644,81.6271186 91.1694915,82.1694915 Z M89,72 C86.8305085,72 84.7966102,72.9491525 83.3050847,74.3050847 C81.8135593,75.7966102 81,77.8305085 81,80 C81,82.1694915 81.9491525,84.2033898 83.3050847,85.6949153 C84.7966102,87.1864407 86.8305085,88 89,88 C91.1694915,88 93.2033898,87.0508475 94.6949153,85.6949153 C96.1864407,84.2033898 97,82.1694915 97,80 C97,77.8305085 96.0508475,75.7966102 94.6949153,74.3050847 C93.3389831,72.8135593 91.3050847,72 89,72 Z" id="Fill-11" fill="#929292"></path>
            <path d="M26.0338983,103.169492 C25.4915254,103.711864 24.8135593,103.983051 23.8644068,103.983051 C23.0508475,103.983051 22.2372881,103.711864 21.6949153,103.169492 C21.1525424,102.627119 20.8813559,101.949153 20.8813559,101 C20.8813559,100.186441 21.1525424,99.3728814 21.6949153,98.8305085 C22.2372881,98.2881356 22.9152542,98.0169492 23.8644068,98.0169492 C24.6779661,98.0169492 25.4915254,98.2881356 26.0338983,98.8305085 C26.5762712,99.3728814 26.8474576,100.050847 26.8474576,101 C26.9830508,101.813559 26.5762712,102.627119 26.0338983,103.169492 Z M24,93 C21.8305085,93 19.7966102,93.9491525 18.3050847,95.3050847 C16.8135593,96.7966102 16,98.8305085 16,101 C16,103.169492 16.9491525,105.20339 18.3050847,106.694915 C19.7966102,108.186441 21.8305085,109 24,109 C26.1694915,109 28.2033898,108.050847 29.6949153,106.694915 C31.1864407,105.20339 32,103.169492 32,101 C32,98.8305085 31.0508475,96.7966102 29.6949153,95.3050847 C28.2033898,93.8135593 26.1694915,93 24,93 Z" id="Fill-12" fill="#929292"></path>
            <path d="M48.1694915,103.169492 C47.6271186,103.711864 46.9491525,103.983051 46,103.983051 C45.1864407,103.983051 44.3728814,103.711864 43.8305085,103.169492 C43.2881356,102.627119 43.0169492,101.949153 43.0169492,101 C43.0169492,100.186441 43.2881356,99.3728814 43.8305085,98.8305085 C44.3728814,98.2881356 45.0508475,98.0169492 46,98.0169492 C46.8135593,98.0169492 47.6271186,98.2881356 48.1694915,98.8305085 C48.7118644,99.3728814 48.9830508,100.050847 48.9830508,101 C48.9830508,101.813559 48.7118644,102.627119 48.1694915,103.169492 Z M46,93 C43.8305085,93 41.7966102,93.9491525 40.3050847,95.3050847 C38.8135593,96.7966102 38,98.8305085 38,101 C38,103.169492 38.9491525,105.20339 40.3050847,106.694915 C41.7966102,108.186441 43.8305085,109 46,109 C48.1694915,109 50.2033898,108.050847 51.6949153,106.694915 C53.1864407,105.338983 54,103.169492 54,101 C54,98.8305085 53.0508475,96.7966102 51.6949153,95.3050847 C50.3389831,93.8135593 48.3050847,93 46,93 Z" id="Fill-13" fill="#929292"></path>
            <path d="M70.0338983,103.169492 C69.4915254,103.711864 68.8135593,103.983051 67.8644068,103.983051 C67.0508475,103.983051 66.2372881,103.711864 65.6949153,103.169492 C65.1525424,102.627119 64.8813559,101.949153 64.8813559,101 C64.8813559,100.186441 65.1525424,99.3728814 65.6949153,98.8305085 C66.2372881,98.2881356 66.9152542,98.0169492 67.8644068,98.0169492 C68.6779661,98.0169492 69.4915254,98.2881356 70.0338983,98.8305085 C70.5762712,99.3728814 70.8474576,100.050847 70.8474576,101 C70.9830508,101.813559 70.5762712,102.627119 70.0338983,103.169492 Z M68,93 C65.8305085,93 63.7966102,93.9491525 62.3050847,95.3050847 C60.8135593,96.7966102 60,98.8305085 60,101 C60,103.169492 60.9491525,105.20339 62.3050847,106.694915 C63.6610169,108.186441 65.8305085,109 68,109 C70.1694915,109 72.2033898,108.050847 73.6949153,106.694915 C75.1864407,105.338983 76,103.169492 76,101 C76,98.8305085 75.0508475,96.7966102 73.6949153,95.3050847 C72.2033898,93.8135593 70.1694915,93 68,93 Z" id="Fill-14" fill="#929292"></path>
            <path d="M91.1694915,103.169492 C90.6271186,103.711864 89.9491525,103.983051 89,103.983051 C88.1864407,103.983051 87.3728814,103.711864 86.8305085,103.169492 C86.2881356,102.627119 86.0169492,101.949153 86.0169492,101 C86.0169492,100.186441 86.2881356,99.3728814 86.8305085,98.8305085 C87.3728814,98.2881356 88.0508475,98.0169492 89,98.0169492 C89.8135593,98.0169492 90.6271186,98.2881356 91.1694915,98.8305085 C91.7118644,99.3728814 91.9830508,100.050847 91.9830508,101 C91.9830508,101.813559 91.7118644,102.627119 91.1694915,103.169492 Z M89,93 C86.8305085,93 84.7966102,93.9491525 83.3050847,95.3050847 C81.8135593,96.7966102 81,98.8305085 81,101 C81,103.169492 81.9491525,105.20339 83.3050847,106.694915 C84.7966102,108.186441 86.8305085,109 89,109 C91.1694915,109 93.2033898,108.050847 94.6949153,106.694915 C96.1864407,105.20339 97,103.169492 97,101 C97,98.8305085 96.0508475,96.7966102 94.6949153,95.3050847 C93.3389831,93.8135593 91.3050847,93 89,93 Z" id="Fill-15" fill="#929292"></path>
        </g>
    </g>
</svg>