<?xml version="1.0" encoding="UTF-8"?>
<svg width="56px" height="56px" viewBox="0 0 56 56" version="1.1" xmlns="http://www.w3.org/2000/svg" xmlns:xlink="http://www.w3.org/1999/xlink">
    <!-- Generator: Sketch 50.2 (55047) - http://www.bohemiancoding.com/sketch -->
    <title>Chot-1</title>
    <desc>Created with Sketch.</desc>
    <defs></defs>
    <g id="Chot-1" stroke="none" stroke-width="1" fill="none" fill-rule="evenodd">
        <g id="Asset-1" fill="#929292" fill-rule="nonzero">
            <path d="M55.17,22 L55.12,21.78 C55.12,21.59 55.04,21.41 54.99,21.23 L54.81,20.51 L54.71,20.15 C54.65,19.96 54.6,19.77 54.54,19.57 C51.6921643,10.3892365 44.302164,3.33205095 35,0.91 L34.76,0.85 L33.76,0.62 L33.35,0.53 L32.63,0.4 L32,0.3 L31.5,0.23 L30.67,0.14 L30.24,0.14 C29.9333333,0.14 29.6233333,0.12 29.31,0.08 L29,0 L28,0 L27.89,0 C17.8490578,0.015362332 8.5908419,5.42500751 3.64773153,14.1649398 C-1.29537883,22.9048721 -1.16084615,33.6268459 4,42.24 L4.12,42.43 L1,52.3 C0.812581552,52.8988367 0.972377455,53.5522157 1.4150226,53.9969586 C1.85766774,54.4417016 2.51028388,54.604585 3.11,54.42 L12.83,51.36 L13.03,51.48 C21.6209543,56.8941241 32.4756675,57.2110789 41.3678973,52.3074592 C50.2601271,47.4038395 55.7844533,38.0546642 55.79,27.9 C55.7913492,25.9170046 55.5835329,23.9393976 55.17,22 Z M16.17,30.6 C15.2896366,30.532129 14.6099038,29.7979758 14.6099038,28.915 C14.6099038,28.0320242 15.2896366,27.297871 16.17,27.23 L42,27.23 C42.8803634,27.297871 43.5600962,28.0320242 43.5600962,28.915 C43.5600962,29.7979758 42.8803634,30.532129 42,30.6 L16.17,30.6 Z M30.74,38.51 C30.74,39.4378384 29.9878384,40.19 29.06,40.19 L16.19,40.19 C15.3096366,40.122129 14.6299038,39.3879758 14.6299038,38.505 C14.6299038,37.6220242 15.3096366,36.887871 16.19,36.82 L29.08,36.82 C29.531726,36.8226017 29.9636085,37.0059428 30.2792525,37.3291022 C30.5948966,37.6522616 30.7680264,38.0883378 30.76,38.54 L30.74,38.51 Z M42,21 L16.19,21 C15.3096366,20.932129 14.6299038,20.1979758 14.6299038,19.315 C14.6299038,18.4320242 15.3096366,17.697871 16.19,17.63 L42,17.63 C42.8803634,17.697871 43.5600962,18.4320242 43.5600962,19.315 C43.5600962,20.1979758 42.8803634,20.932129 42,21 Z" id="Shape"></path>
        </g>
    </g>
</svg>