<?xml version="1.0" encoding="UTF-8"?>
<svg width="28px" height="28px" viewBox="0 0 28 28" version="1.1" xmlns="http://www.w3.org/2000/svg" xmlns:xlink="http://www.w3.org/1999/xlink">
    <!-- Generator: Sketch 51.1 (57501) - http://www.bohemiancoding.com/sketch -->
    <title>confirm</title>
    <desc>Created with Sketch.</desc>
    <defs></defs>
    <g id="App-Prospect" stroke="none" stroke-width="1" fill="none" fill-rule="evenodd">
        <g id="Main-Screen_1-2" transform="translate(-46.000000, -613.000000)" fill="#FFFFFF">
            <g id="Item-Copy" transform="translate(9.000000, 584.000000)">
                <g id="Group-2" transform="translate(23.000000, 29.000000)">
                    <g id="confirm" transform="translate(14.000000, 0.000000)">
                        <g id="check" transform="translate(0.212121, 0.421053)">
                            <path d="M12.6970225,18.7368421 C12.9490443,18.7368421 13.2011646,18.6409552 13.3934063,18.4490831 L20.2873211,11.5719474 C20.6719031,11.1883015 20.6719031,10.5662155 20.2873211,10.1824713 C19.9027391,9.79882536 19.2791353,9.79882536 18.8944549,10.1824713 L12.6970225,16.3650163 L8.4691815,12.1474654 C8.08459954,11.7638195 7.4609957,11.7638195 7.07631526,12.1474654 C6.6917333,12.5311114 6.6917333,13.1531974 7.07631526,13.5369416 L12.0005401,18.4491813 C12.1928803,18.6409552 12.4450006,18.7368421 12.6970225,18.7368421" id="Fill-5"></path>
                            <path d="M13.7878788,0 C11.5911742,0 9.40412121,0.52762406 7.46308333,1.52588722 C6.98021212,1.77425564 6.79151515,2.36414286 7.04176515,2.8434812 C7.29211364,3.32281955 7.8864697,3.51 8.36934091,3.26163158 C10.055303,2.39454135 11.8783561,1.95488722 13.7878788,1.95488722 C20.3044242,1.95488722 25.6060606,7.21666165 25.6060606,13.6842105 C25.6060606,20.1517594 20.3044242,25.4135338 13.7878788,25.4135338 C7.27133333,25.4135338 1.96969697,20.1517594 1.96969697,13.6842105 C1.96969697,11.7896316 2.41268182,9.98057895 3.28634091,8.30739098 C3.53668939,7.82805263 3.34799242,7.23826316 2.86512121,6.98989474 C2.38215152,6.74142857 1.78789394,6.92870677 1.53754545,7.40794737 C0.531621212,9.33439098 0,11.504609 0,13.6842105 C0,21.2296842 6.18524242,27.3684211 13.7878788,27.3684211 C21.3905152,27.3684211 27.5757576,21.2296842 27.5757576,13.6842105 C27.5757576,6.13873684 21.3905152,0 13.7878788,0" id="Fill-6"></path>
                            <path d="M5.44803328,5.40707062 C5.82035254,5.03660326 5.82035254,4.43684408 5.44803328,4.0673242 C5.07475934,3.69685684 4.47045653,3.69685684 4.09813727,4.0673242 C3.72486334,4.43684408 3.72486334,5.03660326 4.09813727,5.40707062 C4.47045653,5.77659049 5.07475934,5.77659049 5.44803328,5.40707062" id="Fill-1"></path>
                        </g>
                    </g>
                </g>
            </g>
        </g>
    </g>
</svg>