<?xml version="1.0" encoding="UTF-8"?>
<svg width="132px" height="133px" viewBox="0 0 132 133" version="1.1" xmlns="http://www.w3.org/2000/svg" xmlns:xlink="http://www.w3.org/1999/xlink">
    <!-- Generator: Sketch 50.2 (55047) - http://www.bohemiancoding.com/sketch -->
    <title>del</title>
    <desc>Created with Sketch.</desc>
    <defs></defs>
    <g id="del" stroke="none" stroke-width="1" fill="none" fill-rule="evenodd">
        <g id="fail" transform="translate(1.000000, 2.000000)" fill="#FFFFFF">
            <path d="M43.3478322,86.6522286 C44.2461954,87.5505896 45.4233133,87.99954 46.6004312,87.99954 C47.7775492,87.99954 48.9551271,87.5505896 49.8530303,86.6522286 L65.0000863,71.5056705 L80.1471422,86.6526886 C81.0455054,87.5510495 82.2226233,88 83.3997413,88 C84.5768592,88 85.7544371,87.5510495 86.6523403,86.6526886 C88.4486066,84.8564268 88.4486066,81.9437687 86.6523403,80.1470469 L71.5057443,65.0000288 L86.6528003,49.8530106 C88.4490666,48.0567488 88.4490666,45.1440907 86.6528003,43.3473689 C84.8565339,41.5506471 81.9438686,41.551107 80.1471422,43.3473689 L65.0000863,58.494387 L49.8530303,43.3473689 C48.0567639,41.551107 45.1440986,41.551107 43.3473722,43.3473689 C41.5506459,45.1436307 41.5511059,48.0562888 43.3473722,49.8530106 L58.4944282,65.0000288 L43.3473722,80.1470469 C41.5511059,81.9433087 41.5511059,84.8559668 43.3478322,86.6522286" id="Fill-5"></path>
            <path d="M25.6835854,25.6835854 C27.4388049,23.9238655 27.4388049,21.0750094 25.6835854,19.31979 C23.9238655,17.56007 21.0750094,17.56007 19.31979,19.31979 C17.56007,21.0750094 17.56007,23.9238655 19.31979,25.6835854 C21.0750094,27.4388049 23.9238655,27.4388049 25.6835854,25.6835854" id="Fill-1"></path>
            <path d="M65,130 C100.841,130 130,100.841 130,65 C130,29.159 100.841,0 65,0 C54.6441071,0 44.3337143,2.50621429 35.1831071,7.24796429 C32.9067143,8.42771429 32.0171429,11.2296786 33.1968929,13.5065357 C34.3771071,15.7833929 37.1786071,16.6725 39.4554643,15.49275 C47.4035714,11.3740714 55.9979643,9.28571429 65,9.28571429 C95.7208571,9.28571429 120.714286,34.2791429 120.714286,65 C120.714286,95.7208571 95.7208571,120.714286 65,120.714286 C34.2791429,120.714286 9.28571429,95.7208571 9.28571429,65 C9.28571429,56.00075 11.3740714,47.40775 15.49275,39.4601071 C16.6729643,37.18325 15.7833929,34.38175 13.507,33.202 C11.2301429,32.0217857 8.42864286,32.9113571 7.24842857,35.18775 C2.50621429,44.3383571 0,54.6468929 0,65 C0,100.841 29.159,130 65,130" id="Fill-6"></path>
        </g>
    </g>
</svg>