<?xml version="1.0" encoding="UTF-8"?>
<svg width="132px" height="133px" viewBox="0 0 132 133" version="1.1" xmlns="http://www.w3.org/2000/svg" xmlns:xlink="http://www.w3.org/1999/xlink">
    <!-- Generator: Sketch 50.2 (55047) - http://www.bohemiancoding.com/sketch -->
    <title>Edit</title>
    <desc>Created with Sketch.</desc>
    <defs>
        <polygon id="path-1" points="0 0 68 0 68 68 0 68"></polygon>
    </defs>
    <g id="Edit" stroke="none" stroke-width="1" fill="none" fill-rule="evenodd">
        <g id="fail" transform="translate(1.000000, 2.000000)" fill="#929292">
            <path d="M25.6835854,25.6835854 C27.4388049,23.9238655 27.4388049,21.0750094 25.6835854,19.31979 C23.9238655,17.56007 21.0750094,17.56007 19.31979,19.31979 C17.56007,21.0750094 17.56007,23.9238655 19.31979,25.6835854 C21.0750094,27.4388049 23.9238655,27.4388049 25.6835854,25.6835854" id="Fill-1"></path>
            <path d="M65,130 C100.841,130 130,100.841 130,65 C130,29.159 100.841,0 65,0 C54.6441071,0 44.3337143,2.50621429 35.1831071,7.24796429 C32.9067143,8.42771429 32.0171429,11.2296786 33.1968929,13.5065357 C34.3771071,15.7833929 37.1786071,16.6725 39.4554643,15.49275 C47.4035714,11.3740714 55.9979643,9.28571429 65,9.28571429 C95.7208571,9.28571429 120.714286,34.2791429 120.714286,65 C120.714286,95.7208571 95.7208571,120.714286 65,120.714286 C34.2791429,120.714286 9.28571429,95.7208571 9.28571429,65 C9.28571429,56.00075 11.3740714,47.40775 15.49275,39.4601071 C16.6729643,37.18325 15.7833929,34.38175 13.507,33.202 C11.2301429,32.0217857 8.42864286,32.9113571 7.24842857,35.18775 C2.50621429,44.3383571 0,54.6468929 0,65 C0,100.841 29.159,130 65,130" id="Fill-6"></path>
        </g>
        <g id="pencil-edit-button" transform="translate(32.000000, 33.000000)">
            <mask id="mask-2" fill="white">
                <use xlink:href="#path-1"></use>
            </mask>
            <g id="Clip-2"></g>
            <path d="M42.283952,11.3483133 L56.1167384,25.2488445 L21.102255,60.434808 L7.27753378,46.5342769 L42.283952,11.3483133 Z M66.6134117,7.99566428 L60.4443712,1.79670797 C58.0603373,-0.598902657 54.1891714,-0.598902657 51.7971708,1.79670797 L45.8877882,7.73503117 L59.7204762,21.635167 L66.6134117,14.7087705 C68.4621961,12.8506354 68.4621961,9.85379943 66.6134117,7.99566428 Z M0.0384860486,66.0723703 C-0.213205139,67.2109723 0.80949317,68.2309699 1.94254611,67.9541275 L17.3570823,64.1983224 L3.53196761,50.2978901 L0.0384860486,66.0723703 Z" id="Fill-1" fill="#929292" mask="url(#mask-2)"></path>
        </g>
    </g>
</svg>