<?xml version="1.0" encoding="UTF-8"?>
<svg width="496px" height="424px" viewBox="0 0 496 424" version="1.1" xmlns="http://www.w3.org/2000/svg" xmlns:xlink="http://www.w3.org/1999/xlink">
    <!-- Generator: Sketch 50.2 (55047) - http://www.bohemiancoding.com/sketch -->
    <title>Fill 1</title>
    <desc>Created with Sketch.</desc>
    <defs>
        <polygon id="path-1" points="0 424 496 424 496 0 0 0"></polygon>
    </defs>
    <g id="Fill-1" stroke="none" stroke-width="1" fill="none" fill-rule="evenodd">
        <path d="M361.5375,137.0364 C360.6585,136.7014 359.7065,136.5374 358.7565,136.5884 C356.9065,136.0904 354.9245,136.3724 353.5555,137.6364 C351.5905,136.7044 349.6255,135.9754 347.8545,136.0544 C346.1605,136.1304 344.4215,136.5634 342.9795,137.4794 C342.4825,137.3274 341.9705,137.2324 341.4575,137.1964 C339.0675,136.9054 336.6755,137.9364 335.8455,140.7324 C332.1805,155.3494 327.963121,168.912644 328.376121,183.209644 C328.006121,184.029644 328.750121,184.726585 328.376121,185.543585 C326.376121,185.281585 325.7605,186.8584 324.1645,189.1344 C321.6875,192.6694 319.2995,196.2614 316.9715,199.8874 C314.0265,198.3694 310.3825,198.5414 307.4065,201.8374 C306.6615,202.6624 305.9165,203.4864 305.1715,204.3114 C296.8725,213.1864 286.7165,220.1734 275.1805,224.2214 C268.9835,226.3964 262.5035,227.9474 255.9435,228.4204 C248.3625,228.9674 241.0315,227.8224 236.3075,235.2154 C232.3945,241.3404 233.2595,248.1014 235.6725,254.5684 C236.4615,256.6824 237.5885,258.5204 236.7405,260.6424 C235.9455,262.6324 233.1595,264.0734 231.3775,264.9694 C218.8995,271.2494 202.7345,269.0854 190.3215,264.0004 C183.7275,261.2994 174.329856,266.263011 175.882856,272.211011 C178.454856,282.061011 184.6755,294.6304 187.6135,304.3754 C187.5075,306.5044 188.1995,308.6414 189.4505,310.3714 C189.9725,312.0544 190.4955,313.7384 191.0285,315.4194 C191.1525,316.0134 191.3345,316.5914 191.5695,317.1474 C193.5555,323.3564 195.6285,329.5374 197.7675,335.6964 C196.2895,339.0124 196.5265,342.8264 199.3855,345.6844 C200.1235,346.4234 200.9965,346.9984 201.9375,347.4224 C203.3925,351.4074 204.8695,355.3824 206.3895,359.3434 C211.2275,371.9514 215.6585,385.5964 222.5955,397.2284 C229.0165,407.9954 239.5765,416.0524 252.6795,413.9464 C264.3115,412.0764 273.3645,402.4264 278.5645,392.3554 C285.0315,379.8334 287.1425,365.5264 290.2355,351.9364 C295.9175,326.9644 307.4445,304.5444 319.3585,282.0714 C332.7975,256.7204 346.4705,230.7654 351.1415,202.1334 C351.3315,200.9734 351.3515,199.8074 351.2055,198.6864 C359.1275,181.3294 366.2435,163.6134 372.4875,145.5784 C374.3725,140.1374 368.6535,137.1264 364.4355,138.7734 C363.6965,137.9504 362.6745,137.3544 361.5375,137.0364 Z" fill="#D81B60"></path>
        <path d="M200.5005,57.7002 C203.0235,56.2742 204.3365,54.2272 204.7315,52.0532 C208.3395,50.7672 211.9815,49.5642 215.5095,48.1792 C218.1025,47.1602 221.1845,45.8782 224.2045,44.2902 C225.4135,48.3512 229.2175,51.4262 234.6895,49.9402 C242.8865,47.7152 251.0835,45.4892 259.2795,43.2632 C267.9905,40.8982 266.9425,29.7432 260.6895,26.5502 C261.9575,24.9902 263.2045,23.4062 264.4115,21.7692 C268.3465,16.4352 263.0835,7.8542 256.7015,8.3322 C239.2235,9.6412 221.2385,14.5962 204.8985,22.7862 C200.3745,23.6952 195.8525,24.6262 191.4195,25.9452 C179.4885,29.4952 169.9875,36.3362 161.4665,45.2672 C152.8445,54.3032 145.1305,64.3412 138.6065,74.9902 C132.5585,84.8622 126.1965,96.1742 123.2835,107.4572 C120.3195,118.9382 125.3225,131.9332 138.4825,132.8242 C149.5155,133.5712 158.9195,125.3992 162.1575,115.3232 C165.0215,106.4082 164.1375,97.1492 166.2595,88.2372 C175.2845,75.8172 186.9525,65.3532 200.5005,57.7002" id="Fill-3" fill="#D81B60"></path>
        <path d="M358.1299,180.8799 L302.1699,308.8039 L302.1699,310.9999 L301.2099,310.9999 L301.5109,310.3109 L263.0899,398.1399 C260.4599,404.1299 254.5399,407.9999 247.9999,407.9999 C241.4599,407.9999 235.5399,404.1299 232.9099,398.1399 L177.7299,271.9999 L160.2699,271.9999 L218.2599,404.5499 C223.4299,416.3599 235.0999,423.9999 247.9999,423.9999 C260.9009,423.9999 272.5699,416.3599 277.7399,404.5399 L286.1999,385.2199 L293.0299,369.6199 L307.5099,336.3699 L372.7799,187.2999 C378.7799,173.5999 382.2199,159.0499 383.3599,143.9999 L367.3399,143.9999 C366.2399,156.8199 363.2309,169.2199 358.1299,180.8799" id="Fill-5" fill="#1D1D1B"></path>
        <path d="M152.4102,128 L158.1902,128 L169.1392,123.141 C175.3202,85.135 208.2772,56 248.0002,56 C250.6302,56 253.3002,56.18 256.0002,56.46 L256.0002,40.38 C253.3092,40.14 250.6502,40 248.0002,40 C197.7602,40 156.5002,78.81 152.4102,128" id="Fill-7" fill="#1D1D1B"></path>
        <path d="M248,216 C245.37,216 242.7,215.82 240,215.54 L240,231.62 C242.69,231.86 245.35,232 248,232 C298.24,232 339.5,193.19 343.59,144 L337.71,144 L326.87,148.82 L326.87,148.8 C320.71,186.84 287.74,216 248,216" id="Fill-9" fill="#1D1D1B"></path>
        <path d="M245.7002,16 L250.3002,16 C252.1702,16 254.0592,16.06 256.0002,16.17 L256.0002,0.16 C254.0802,0.08 252.1702,0 250.3002,0 L245.7002,0 C173.9002,0 115.3102,56.93 112.2902,128 L128.2902,128 C131.3002,65.75 182.7302,16 245.7002,16" id="Fill-11" fill="#1D1D1B"></path>
        <path d="M16,256 L16,144 L161.7,144 L224,116.31 L224,256 L16,256 Z M240,272 L240,231.62 L240,215.54 L240,91.7 L169.13,123.19 C169.13,123.17 169.14,123.16 169.14,123.14 L169.139,123.141 L158.19,128 L152.41,128 L128.29,128 L112.29,128 L0,128 L0,272 L160.27,272 L177.73,272 L240,272 Z" id="Fill-13" fill="#929292"></path>
        <path d="M480,128 L334.3,128 L272,155.69 L272,16 L480,16 L480,128 Z M256,0 L256,0.16 L256,16.17 L256,40.38 L256,56.46 L256,180.3 L326.87,148.8 L326.87,148.82 L337.71,144 L343.59,144 L367.34,144 L383.36,144 L496,144 L496,0 L256,0 Z" id="Fill-15" fill="#929292"></path>
        <mask id="mask-2" fill="white">
            <use xlink:href="#path-1"></use>
        </mask>
        <g id="Clip-18"></g>
        <polygon id="Fill-17" fill="#929292" mask="url(#mask-2)" points="440.999 101.999 456.999 101.999 456.999 85.999 440.999 85.999"></polygon>
        <polygon id="Fill-19" fill="#929292" mask="url(#mask-2)" points="296.999 101.999 424.999 101.999 424.999 85.999 296.999 85.999"></polygon>
        <polygon id="Fill-20" fill="#929292" mask="url(#mask-2)" points="296.999 69.999 456.999 69.999 456.999 53.999 296.999 53.999"></polygon>
        <polygon id="Fill-21" fill="#929292" mask="url(#mask-2)" points="39.999 229.999 167.999 229.999 167.999 213.999 39.999 213.999"></polygon>
        <polygon id="Fill-22" fill="#929292" mask="url(#mask-2)" points="183.999 229.999 199.999 229.999 199.999 213.999 183.999 213.999"></polygon>
        <polygon id="Fill-23" fill="#929292" mask="url(#mask-2)" points="39.999 197.999 199.999 197.999 199.999 181.999 39.999 181.999"></polygon>
        <polygon id="Fill-24" fill="#1D1D1B" mask="url(#mask-2)" points="301.5107 310.3105 301.2097 310.9995 302.1697 310.9995 302.1697 308.8035 302.1697 308.7995"></polygon>
    </g>
</svg>