<?xml version="1.0" encoding="UTF-8"?>
<svg width="40px" height="90px" viewBox="0 0 40 90" version="1.1" xmlns="http://www.w3.org/2000/svg" xmlns:xlink="http://www.w3.org/1999/xlink">
    <!-- Generator: Sketch 50.2 (55047) - http://www.bohemiancoding.com/sketch -->
    <title>Info</title>
    <desc>Created with Sketch.</desc>
    <defs></defs>
    <g id="Info" stroke="none" stroke-width="1" fill="none" fill-rule="evenodd">
        <path d="M38.258,80.367 L37.012,85.465 C33.27,86.942 30.281,88.067 28.055,88.84 C25.828,89.613 23.238,90 20.289,90 C15.758,90 12.234,88.891 9.723,86.688 C7.211,84.473 5.953,81.668 5.953,78.27 C5.953,76.949 6.043,75.598 6.234,74.215 C6.426,72.836 6.73,71.277 7.145,69.539 L11.82,52.988 C12.238,51.406 12.59,49.902 12.875,48.484 C13.16,47.07 13.301,45.774 13.301,44.606 C13.301,42.492 12.863,41.012 11.992,40.18 C11.121,39.352 9.457,38.934 6.988,38.934 C5.781,38.934 4.539,39.125 3.273,39.5 C2,39.875 0.914,40.238 0,40.578 L1.25,35.473 C4.312,34.227 7.242,33.16 10.043,32.274 C12.844,31.383 15.488,30.938 17.992,30.938 C22.492,30.938 25.961,32.027 28.398,34.199 C30.836,36.375 32.055,39.199 32.055,42.672 C32.055,43.395 31.977,44.66 31.805,46.473 C31.637,48.285 31.324,49.949 30.867,51.461 L26.211,67.945 C25.828,69.27 25.488,70.785 25.188,72.488 C24.879,74.18 24.734,75.473 24.734,76.34 C24.734,78.527 25.223,80.024 26.199,80.817 C27.184,81.609 28.883,82.008 31.293,82.008 C32.426,82.008 33.715,81.805 35.145,81.41 C36.57,81.016 37.613,80.672 38.258,80.367 Z M39.438,11.164 C39.438,14.035 38.355,16.488 36.18,18.504 C34.012,20.527 31.398,21.539 28.34,21.539 C25.27,21.539 22.652,20.527 20.457,18.504 C18.266,16.484 17.168,14.035 17.168,11.164 C17.168,8.297 18.266,5.84 20.457,3.797 C22.645,1.758 25.273,0.738 28.34,0.738 C31.398,0.738 34.012,1.762 36.18,3.797 C38.359,5.84 39.438,8.297 39.438,11.164 Z" id="Fill-1" fill="#C6C6C6"></path>
    </g>
</svg>