<?xml version="1.0" encoding="UTF-8"?>
<svg width="372px" height="384px" viewBox="0 0 372 384" version="1.1" xmlns="http://www.w3.org/2000/svg" xmlns:xlink="http://www.w3.org/1999/xlink">
    <!-- Generator: Sketch 50.2 (55047) - http://www.bohemiancoding.com/sketch -->
    <title>like</title>
    <desc>Created with Sketch.</desc>
    <defs></defs>
    <g id="like" stroke="none" stroke-width="1" fill="none" fill-rule="evenodd">
        <path d="M360.719,261.519 C368.559,251.519 372.32,240.8 371.84,229.761 C371.359,217.601 365.922,208.082 361.441,202.242 C366.641,189.281 368.641,168.882 351.281,153.043 C338.559,141.441 316.961,136.242 287.039,137.679 C266,138.64 248.398,142.562 247.68,142.722 L247.602,142.722 C243.602,143.441 239.359,144.32 235.039,145.281 C234.719,140.16 235.602,127.441 245.039,98.8 C256.238,64.722 255.602,38.64 242.961,21.203 C229.68,2.882 208.48,1.441 202.238,1.441 C196.238,1.441 190.719,3.921 186.801,8.48 C177.922,18.8 178.961,37.839 180.078,46.64 C169.52,74.961 139.922,144.402 114.879,163.679 C114.398,164 114,164.402 113.602,164.8 C106.238,172.562 101.281,180.961 97.922,188.32 C93.199,185.761 87.84,184.32 82.078,184.32 L33.281,184.32 C14.879,184.32 0,199.281 0,217.601 L0,347.601 C0,366 14.961,380.882 33.281,380.882 L82.078,380.882 C89.199,380.882 95.84,378.64 101.281,374.8 L120.078,377.043 C122.961,377.441 174.16,383.921 226.719,382.882 C236.238,383.601 245.199,384 253.52,384 C267.84,384 280.32,382.882 290.719,380.64 C315.199,375.441 331.922,365.043 340.398,349.761 C346.879,338.082 346.879,326.48 345.84,319.121 C361.762,304.722 364.559,288.8 364,277.601 C363.68,271.121 362.238,265.601 360.719,261.519 Z M33.281,359.281 C26.801,359.281 21.602,354 21.602,347.601 L21.602,217.519 C21.602,211.043 26.879,205.839 33.281,205.839 L82.078,205.839 C88.559,205.839 93.762,211.121 93.762,217.519 L93.762,347.519 C93.762,354 88.48,359.203 82.078,359.203 L33.281,359.203 L33.281,359.281 Z M340.238,252.16 C336.879,255.679 336.238,261.043 338.801,265.203 C338.801,265.281 342.078,270.882 342.48,278.562 C343.039,289.043 338,298.32 327.441,306.242 C323.68,309.121 322.16,314.082 323.762,318.562 C323.762,318.64 327.199,329.203 321.602,339.203 C316.238,348.8 304.32,355.679 286.238,359.519 C271.762,362.64 252.078,363.203 227.922,361.281 L226.801,361.281 C175.359,362.402 123.359,355.679 122.801,355.601 L122.719,355.601 L114.641,354.64 C115.121,352.402 115.359,350 115.359,347.601 L115.359,217.519 C115.359,214.082 114.801,210.722 113.84,207.601 C115.281,202.242 119.281,190.32 128.719,180.16 C164.641,151.679 199.762,55.601 201.281,51.441 C201.922,49.761 202.078,47.921 201.762,46.082 C200.398,37.121 200.879,26.16 202.801,22.882 C207.039,22.961 218.48,24.16 225.359,33.679 C233.52,44.961 233.199,65.121 224.398,91.839 C210.961,132.562 209.84,154 220.48,163.441 C225.762,168.16 232.801,168.402 237.922,166.562 C242.801,165.441 247.441,164.48 251.84,163.761 C252.16,163.679 252.559,163.601 252.879,163.519 C277.441,158.16 321.441,154.882 336.719,168.8 C349.68,180.64 340.48,196.32 339.441,198 C336.48,202.48 337.359,208.32 341.359,211.921 C341.441,212 349.84,219.921 350.238,230.562 C350.559,237.679 347.199,244.961 340.238,252.16 Z" fill="#FFFFFF"></path>
    </g>
</svg>