<?xml version="1.0" encoding="UTF-8"?>
<svg width="496px" height="496px" viewBox="0 0 496 496" version="1.1" xmlns="http://www.w3.org/2000/svg" xmlns:xlink="http://www.w3.org/1999/xlink">
    <!-- Generator: Sketch 50.2 (55047) - http://www.bohemiancoding.com/sketch -->
    <title>Icon</title>
    <desc>Created with Sketch.</desc>
    <defs></defs>
    <g id="Icon" stroke="none" stroke-width="1" fill="none" fill-rule="evenodd">
        <g id="Page-1">
            <path d="M384,384 C388.418,384 392,387.582 392,392 C392,396.418 388.418,400 384,400 C379.582,400 376,396.418 376,392 C376,387.582 379.582,384 384,384" id="Fill-1" fill="#000000"></path>
            <path d="M144,16 L352,16 C365.232,16 376,26.768 376,40 L376,48 L120,48 L120,40 C120,26.768 130.768,16 144,16 Z M120,64 L376,64 L376,72 C376,76.418 379.582,80 384,80 C388.418,80 392,76.418 392,72 L392,40 C392,17.909 374.092,0 352,0 L144,0 C121.909,0 104,17.909 104,40 L104,72 C104,76.418 107.582,80 112,80 C116.418,80 120,76.418 120,72 L120,64 Z" id="Fill-3" fill="#000000"></path>
            <path d="M112,384 C116.418,384 120,387.582 120,392 C120,396.418 116.418,400 112,400 C107.582,400 104,396.418 104,392 C104,387.582 107.582,384 112,384" id="Fill-5" fill="#000000"></path>
            <path d="M218.2134,181.7271 C219.3204,178.8941 220.4914,175.7611 222.1484,173.0181 C227.2384,170.7271 232.7174,169.0721 238.1674,167.9231 C240.1154,167.5131 241.6044,166.6791 242.6924,165.5881 C254.2704,166.8111 265.0844,172.5531 274.4244,179.2031 C280.1274,183.2631 286.7394,188.2371 291.4754,194.2021 C291.9134,199.0941 291.3654,204.1661 290.8704,209.4721 C290.2624,216.0001 289.4444,222.4611 288.0784,228.8111 C288.0064,228.7811 287.9394,228.7441 287.8684,228.7151 C283.1994,226.8371 278.8694,228.6651 276.0054,232.6021 C272.9024,236.8671 269.8854,241.1881 266.9464,245.5611 C264.5374,244.7601 261.8874,244.8351 259.5854,246.2701 C253.1444,250.2831 248.5294,253.0641 241.0814,250.2511 C235.4274,248.1141 229.6604,245.8761 223.7694,246.2331 C219.5054,240.7091 214.9854,235.3901 210.0494,230.4211 C208.5054,228.8661 206.8074,228.0301 205.1094,227.7381 C204.9144,225.7211 204.0684,224.0161 202.8244,222.6951 C203.2784,220.3481 203.8464,218.0151 204.5244,215.6931 C205.1514,213.9021 205.7464,212.0981 206.2894,210.2731 C207.4364,206.4211 206.3444,203.3541 204.2134,201.3451 C205.6494,198.3021 207.0834,195.2591 208.5184,192.2161 C209.0524,191.0831 209.4004,189.8931 209.5564,188.6991 C213.5394,188.4851 216.7044,185.5881 218.2134,181.7271 M316.4074,205.2061 C315.4474,198.5261 312.9864,192.6371 309.5654,187.3381 C308.3324,180.8321 305.7964,174.6641 301.2714,168.7181 C286.1484,148.8461 260.7134,137.3701 235.8964,141.7911 C234.4554,142.0481 233.2014,142.7431 232.1624,143.6981 C226.5684,143.7261 221.1764,144.0461 215.7084,147.2451 C208.9384,151.2041 204.3364,157.5401 200.2424,164.0551 C189.9704,171.8301 182.2464,182.4291 180.0384,196.0001 C179.5504,198.9981 180.1114,202.0271 181.7504,204.3071 C178.5964,212.8301 177.4324,221.5931 182.3164,229.6751 C182.4204,229.8471 182.5474,230.0001 182.6634,230.1641 C182.4264,233.5331 182.3544,236.9161 182.4884,240.2981 C182.5774,242.5401 183.3054,244.4011 184.4224,245.8561 C184.4414,246.2461 184.4494,246.6351 184.4744,247.0241 C184.7514,251.2311 187.2344,255.0271 191.4494,256.1851 C191.6074,256.2281 191.7734,256.2611 191.9374,256.2951 C192.0484,256.7121 192.1514,257.1311 192.2694,257.5461 C193.6554,262.4641 197.6734,264.4401 201.6344,264.2201 C203.9154,268.8091 207.0914,273.0321 210.5294,276.8991 C214.4854,281.3481 219.0684,285.3851 221.9914,290.3951 C222.9154,292.9871 223.8384,295.5791 224.7634,298.1711 C225.6504,300.6571 227.0574,302.3931 228.7074,303.4821 C228.7634,305.9521 228.8214,308.4221 228.8784,310.8921 C228.9874,315.6281 232.5444,319.7051 237.1934,320.3071 C238.4504,322.0191 239.8254,323.6581 241.3264,325.2081 C245.9984,330.0271 252.6754,328.0061 256.2474,323.2851 C264.3964,312.5141 271.3994,301.0141 277.2534,288.8561 C280.1134,288.8851 283.0364,287.5411 285.1294,284.2771 C293.5924,271.0771 302.0554,257.8771 310.5194,244.6771 C311.6344,242.9381 312.0834,241.2241 312.0464,239.6201 C317.4744,229.5071 317.9814,216.1651 316.4074,205.2061" id="Fill-7" fill="#D81B60"></path>
            <path d="M120,432 L376,432 L376,456 C376,469.232 365.232,480 352,480 L144,480 C130.768,480 120,469.232 120,456 L120,432 Z M104,456 C104,478.056 121.944,496 144,496 L352,496 C374.056,496 392,478.056 392,456 L392,416 L104,416 L104,456 Z" id="Fill-9" fill="#000000"></path>
            <path d="M216,448 L280,448 C284.418,448 288,451.582 288,456 C288,460.418 284.418,464 280,464 L216,464 C211.582,464 208,460.418 208,456 C208,451.582 211.582,448 216,448" id="Fill-11" fill="#000000"></path>
            <path d="M448,352 L448,320 L320,320 L320,352 L288,352 L288,294.456 L287.976,294.456 L292.28,288 L448,288 L448,224 L326.68,224 C327.472,219.464 328,214.872 328,210.2 L328,208 C328,202.52 327.44,197.168 326.384,192 L384,192 L384,112 L416,112 L416,192 L480,192 L480,352 L448,352 Z M336,352 L432,352 L432,336 L336,336 L336,352 Z M16,352 L104,352 L104,288 L16,288 L16,352 Z M16,176 L80,176 L80,112 L16,112 L16,176 Z M248,128 C215.272,128 187.104,147.784 174.728,176 L144,176 L144,112 L368,112 L368,176 L321.272,176 C308.896,147.784 280.728,128 248,128 Z M314.56,254.576 C317.624,249.976 319.992,245.048 322.024,240 L432,240 L432,272 L302.944,272 L314.56,254.576 Z M253.784,316.904 C251.208,320.776 244.8,320.776 242.224,316.904 L194.752,245.704 C187.72,235.152 184,222.872 184,210.2 L184,208 C184,172.712 212.712,144 248,144 C283.288,144 312,172.712 312,208 L312,210.2 C312,222.872 308.28,235.144 301.248,245.704 L253.784,316.904 Z M168,288 L203.72,288 L228.904,325.784 C233.176,332.176 240.312,336 248,336 C255.688,336 262.824,332.176 267.096,325.784 L272,318.424 L272,352 L168,352 L168,288 Z M173.968,240 C176.008,245.048 178.368,249.984 181.432,254.576 L193.056,272 L152,272 L152,352 L120,352 L120,272 L16,272 L16,240 L173.968,240 Z M96,112 L128,112 L128,192 L169.616,192 C168.56,197.168 168,202.52 168,208 L168,210.2 C168,214.864 168.528,219.456 169.32,224 L16,224 L16,192 L96,192 L96,112 Z M432,176 L480,176 L480,112 L432,112 L432,176 Z M0,368 L496,368 L496,96 L0,96 L0,368 Z" id="Fill-13" fill="#000000"></path>
            <path d="M248,240 C230.352,240 216,225.648 216,208 C216,190.352 230.352,176 248,176 C265.648,176 280,190.352 280,208 C280,225.648 265.648,240 248,240 M248,160 C221.528,160 200,181.528 200,208 C200,234.472 221.528,256 248,256 C274.472,256 296,234.472 296,208 C296,181.528 274.472,160 248,160" id="Fill-15" fill="#000000"></path>
        </g>
    </g>
</svg>