<?xml version="1.0" encoding="UTF-8"?>
<svg width="55px" height="56px" viewBox="0 0 55 56" version="1.1" xmlns="http://www.w3.org/2000/svg" xmlns:xlink="http://www.w3.org/1999/xlink">
    <!-- Generator: Sketch 50.2 (55047) - http://www.bohemiancoding.com/sketch -->
    <title>Prof-2 Copy 3</title>
    <desc>Created with Sketch.</desc>
    <defs></defs>
    <g id="Prof-2-Copy-3" stroke="none" stroke-width="1" fill="none" fill-rule="evenodd">
        <path d="M29.3056474,53.2481526 L44.1002105,38.4525158 C45.1309474,37.4217789 45.1309474,35.7683053 44.1002105,34.7375684 C43.0694737,33.7071 41.416,33.7071 40.3852632,34.7375684 L30.0784316,45.0457421 L30.0784316,5.64126316 C30.0784316,4.18078421 28.8979158,3 27.4371684,3 C25.9766895,3 24.7959053,4.18078421 24.7959053,5.64126316 L24.7959053,45.0237316 L14.4890737,34.7166316 C13.4572632,33.6858947 11.8048632,33.6858947 10.7730526,34.7166316 C9.74231579,35.7473684 9.74231579,37.4008421 10.7730526,38.4315789 L25.5686895,53.2261421 C26.0845947,53.7420474 26.7505474,54 27.4371684,54 C28.1240579,54 28.7897421,53.7629842 29.3056474,53.2481526 Z" id="Fill-4" fill="#D81B60"></path>
    </g>
</svg>