<?xml version="1.0" encoding="UTF-8"?>
<svg width="55px" height="56px" viewBox="0 0 55 56" version="1.1" xmlns="http://www.w3.org/2000/svg" xmlns:xlink="http://www.w3.org/1999/xlink">
    <!-- Generator: Sketch 50.2 (55047) - http://www.bohemiancoding.com/sketch -->
    <title>Prof-2</title>
    <desc>Created with Sketch.</desc>
    <defs></defs>
    <g id="Prof-2" stroke="none" stroke-width="1" fill="none" fill-rule="evenodd">
        <g id="Asset-3" fill="#929292" fill-rule="nonzero">
            <path d="M28,55.91 C42.823668,55.0685624 54.4131872,42.8025301 54.4131872,27.955 C54.4131872,13.1074699 42.823668,0.841437554 28,-9.04469934e-16 C16.5056347,-0.00212784523 6.1828199,7.0354461 1.98486851,17.7358033 C-2.21308288,28.4361604 0.570524145,40.6156302 9,48.43 C14.1573688,53.239776 20.9478806,55.9130933 28,55.91 Z M43.68,47 C34.02205,54.2689861 22.5089119,55.6404146 11.9835001,47.2346833 L12.7,46.71 L14.63,45.9 C15.92,45.36 17.23,44.85 18.51,44.29 C18.7479089,44.1742429 18.9386273,43.9799927 19.05,43.74 C19.34,43.01 19.58,42.27 19.81,41.53 C19.98,40.97 20.09,40.41 20.81,40.26 C21.0393659,40.1564509 21.2036572,39.9473529 21.25,39.7 C21.4,38.62 21.5,37.53 21.58,36.44 C21.5793209,36.1831746 21.4871406,35.9349969 21.32,35.74 C20.3920251,34.6914211 19.7998499,33.3886357 19.62,32 C19.4359198,31.2963206 19.1985682,30.6076665 18.91,29.94 C18.64,29 18.41,28.06 18.2,27.11 C18.12,26.77 18.2,26.39 18.11,26.05 C18.03,25.54 18.04,25.14 18.66,24.95 C18.83,24.89 18.98,24.49 18.98,24.24 C18.98,22.72 18.98,21.24 18.98,19.69 C18.98,18.76 18.98,17.82 19.04,16.9 C19.2405268,15.2357351 20.1477234,13.7383143 21.53,12.79 C23.4640989,11.324578 25.7139404,10.3314973 28.1,9.89 C29.33,9.61 30.59,9.43 31.84,9.23 C32.1727327,9.20170051 32.5072673,9.20170051 32.84,9.23 C32.8908198,9.32035188 32.9476126,9.40721154 33.01,9.49 C32.7346012,9.65797832 32.4736964,9.84863953 32.23,10.06 C31.72,10.58 31.76,10.93 32.31,11.39 C33.44,12.39 34.58,13.32 35.68,14.31 C36.595414,15.1565483 37.0896083,16.3645789 37.03,17.61 C37.03,19.82 37.03,22.03 37.03,24.23 C37.03,24.69 37.03,25.13 37.56,25.34 C37.69,25.34 37.8,25.62 37.79,25.76 C37.69,26.9 37.57,28.02 37.46,29.15 C36.46,30.76 36.31,32.58 35.59,34.16 C35.5701855,34.2276749 35.5398116,34.2917974 35.5,34.35 C34.15,35.93 34.58,37.85 34.5,39.67 C34.5038632,39.8787483 34.6034081,40.0741513 34.77,40.2 C35.2281587,40.4498572 35.5400543,40.9028485 35.61,41.42 C35.8383986,42.2084886 36.1121886,42.9831142 36.43,43.74 C36.60972,44.0353763 36.8903723,44.2556351 37.22,44.36 C39.33,45.17 41.43,46.01 43.5,46.9 L43.68,47 Z" id="Shape"></path>
        </g>
    </g>
</svg>