<?xml version="1.0" encoding="UTF-8"?>
<svg width="162px" height="152px" viewBox="0 0 162 152" version="1.1" xmlns="http://www.w3.org/2000/svg" xmlns:xlink="http://www.w3.org/1999/xlink">
    <!-- Generator: Sketch 50.2 (55047) - http://www.bohemiancoding.com/sketch -->
    <title>Road</title>
    <desc>Created with Sketch.</desc>
    <defs>
        <polygon id="path-1" points="0.0190178571 0.0127196653 142 0.0127196653 142 152 0.0190178571 152"></polygon>
    </defs>
    <g id="Road" stroke="none" stroke-width="1" fill="none" fill-rule="evenodd">
        <g id="route">
            <g id="Group-5">
                <mask id="mask-2" fill="white">
                    <use xlink:href="#path-1"></use>
                </mask>
                <g id="Clip-2"></g>
                <path d="M25.0401786,132.284519 C16.4761205,132.284519 9.50892857,125.294745 9.50892857,116.702929 C9.50892857,108.111113 16.4761205,101.121339 25.0401786,101.121339 L55.46875,101.121339 C69.2760312,101.121339 80.5089286,89.8520335 80.5089286,76 C80.5089286,62.1479665 69.2760312,50.8786611 55.46875,50.8786611 L38.8350982,50.8786611 C39.1403348,52.4221925 39.3035714,54.0162845 39.3035714,55.6485356 C39.3035714,57.2807866 39.1403348,58.8748787 38.8350982,60.41841 L55.46875,60.41841 C64.032808,60.41841 71,67.4081841 71,76 C71,84.5918159 64.032808,91.58159 55.46875,91.58159 L25.0401786,91.58159 C11.2328973,91.58159 0,102.850895 0,116.702929 C0,130.554962 11.2328973,141.824268 25.0401786,141.824268 L103.164902,141.824268 C102.859665,140.280736 102.696429,138.686644 102.696429,137.054393 C102.696429,135.422142 102.859665,133.82805 103.164902,132.284519 L25.0401786,132.284519" id="Fill-1" fill="#929292" mask="url(#mask-2)"></path>
                <path d="M127.102679,122.108787 C118.888232,122.108787 112.205357,128.813322 112.205357,137.054393 C112.205357,145.295464 118.888232,152 127.102679,152 C135.317125,152 142,145.295464 142,137.054393 C142,128.813322 135.317125,122.108787 127.102679,122.108787" id="Fill-3" fill="#929292" mask="url(#mask-2)"></path>
                <path d="M14.8973214,70.5941423 C23.1117679,70.5941423 29.7946429,63.8896067 29.7946429,55.6485356 C29.7946429,49.0753305 25.5409821,43.4837657 19.6517857,41.4880502 L19.6517857,29.8912134 L45.3258929,29.8912134 C47.951625,29.8912134 50.0803571,27.7555816 50.0803571,25.1213389 L50.0803571,4.76987448 C50.0803571,2.1356318 47.951625,0 45.3258929,0 L14.8973214,0 C12.2715893,0 10.1428571,2.1356318 10.1428571,4.76987448 C10.1428571,8.7094728 10.1428571,37.5036151 10.1428571,41.4880502 C4.25366071,43.4837657 0,49.0753305 0,55.6485356 C0,63.8896067 6.682875,70.5941423 14.8973214,70.5941423" id="Fill-4" fill="#929292" mask="url(#mask-2)"></path>
            </g>
            <path d="M127.5,60.6814965 C119.445027,60.6814965 112.891892,53.9184036 112.891892,45.6053551 C112.891892,37.2923066 119.445027,30.5292138 127.5,30.5292138 C135.554973,30.5292138 142.108108,37.2923066 142.108108,45.6053551 C142.108108,53.9184036 135.554973,60.6814965 127.5,60.6814965 Z M127.5,10 C108.476514,10 93,25.9723698 93,45.6053551 C93,56.2070902 97.4753649,66.0845289 105.316189,72.8755287 L123.346324,109.378075 C125.073189,112.874136 129.927122,112.873815 131.653676,109.378075 L149.683811,72.8755287 C157.524635,66.0845289 162,56.2070902 162,45.6053551 C162,25.9723698 146.523486,10 127.5,10 Z" id="Fill-6" fill="#929292"></path>
        </g>
    </g>
</svg>