<?xml version="1.0" encoding="UTF-8"?>
<svg width="216px" height="216px" viewBox="0 0 216 216" version="1.1" xmlns="http://www.w3.org/2000/svg" xmlns:xlink="http://www.w3.org/1999/xlink">
    <!-- Generator: Sketch 50.2 (55047) - http://www.bohemiancoding.com/sketch -->
    <title>settings</title>
    <desc>Created with Sketch.</desc>
    <defs></defs>
    <g id="settings" stroke="none" stroke-width="1" fill="none" fill-rule="evenodd">
        <path d="M214.33267,95.5709163 C213.99267,92.5479163 210.46967,90.2749163 207.42267,90.2749163 C197.57067,90.2749163 188.82867,84.4929163 185.16067,75.5439163 C181.41867,66.3799163 183.83267,55.6959163 191.17267,48.9619163 C193.48467,46.8489163 193.76667,43.3099163 191.82867,40.8529163 C186.78567,34.4499163 181.05567,28.6649163 174.79767,23.6529163 C172.34867,21.6889163 168.75067,21.9619163 166.62567,24.3139163 C160.21967,31.4109163 148.70767,34.0479163 139.81267,30.3369163 C130.55967,26.4429163 124.71967,17.0639163 125.29367,6.99691629 C125.48067,3.83291629 123.16867,1.08291629 120.01667,0.71591629 C111.98467,-0.21408371 103.88367,-0.24108371 95.8286699,0.65291629 C92.7156699,0.99691629 90.4026699,3.68091629 90.5086699,6.80591629 C90.8556699,16.7749163 84.9496699,25.9889163 75.7856699,29.7429163 C66.9966699,33.3329163 55.5666699,30.7159163 49.1726699,23.6809163 C47.0596699,21.3639163 43.5236699,21.0789163 41.0596699,23.0009163 C34.6176699,28.0559163 28.7586699,33.8449163 23.6686699,40.1959163 C21.6846699,42.6649163 21.9776699,46.2429163 24.3096699,48.3639163 C31.7936699,55.1419163 34.2076699,65.9189163 30.3206699,75.1889163 C26.6096699,84.0279163 17.4346699,89.7199163 6.93066993,89.7199163 C3.52066993,89.6109163 1.09466993,91.8999163 0.719669929,95.0009163 C-0.226330071,103.074916 -0.237330071,111.305916 0.672669929,119.445916 C1.01266993,122.481916 4.64166993,124.735916 7.72366993,124.735916 C17.0866699,124.496916 26.0706699,130.289916 29.8446699,139.465916 C33.6026699,148.629916 31.1846699,159.309916 23.8326699,166.051916 C21.5316699,168.164916 21.2386699,171.695916 23.1806699,174.149916 C28.1726699,180.512916 33.9066699,186.301916 40.1846699,191.356916 C42.6486699,193.340916 46.2306699,193.063916 48.3676699,190.707916 C54.8016699,183.594916 66.3096699,180.961916 75.1686699,184.680916 C84.4496699,188.563916 90.2856699,197.942916 89.7156699,208.012916 C89.5276699,211.176916 91.8486699,213.934916 94.9886699,214.293916 C99.0986699,214.774916 103.23067,215.012916 107.37567,215.012916 C111.30967,215.012916 115.24267,214.797916 119.17667,214.360916 C122.29367,214.016916 124.60267,211.328916 124.49667,208.203916 C124.13767,198.238916 130.05567,189.024916 139.20767,185.277916 C148.05567,181.664916 159.43467,184.309916 165.83267,191.332916 C167.95767,193.645916 171.46967,193.926916 173.94567,192.012916 C180.37567,186.969916 186.22367,181.184916 191.33667,174.817916 C193.32067,172.352916 193.03967,168.770916 190.69567,166.645916 C183.21167,159.871916 180.78567,149.090916 184.67267,139.828916 C188.32467,131.110916 197.16067,125.254916 206.66467,125.254916 L207.99267,125.289916 C211.07867,125.539916 213.91467,123.164916 214.28567,120.016916 C215.23467,111.934916 215.24667,103.711916 214.33267,95.5709163 Z M107.67267,143.594916 C87.8986699,143.594916 71.8166699,127.508916 71.8166699,107.735916 C71.8166699,87.9619163 87.8986699,71.8759163 107.67267,71.8759163 C127.44967,71.8759163 143.53167,87.9619163 143.53167,107.735916 C143.53167,127.508916 127.44967,143.594916 107.67267,143.594916 Z" id="Fill-1" fill="#929292"></path>
    </g>
</svg>