<?xml version="1.0" encoding="UTF-8"?>
<svg width="155px" height="197px" viewBox="0 0 155 197" version="1.1" xmlns="http://www.w3.org/2000/svg" xmlns:xlink="http://www.w3.org/1999/xlink">
    <!-- Generator: Sketch 50.2 (55047) - http://www.bohemiancoding.com/sketch -->
    <title>sign</title>
    <desc>Created with Sketch.</desc>
    <defs>
        <polygon id="path-1" points="0.023019802 0 154.999568 0 154.999568 197 0.023019802 197"></polygon>
    </defs>
    <g id="sign" stroke="none" stroke-width="1" fill="none" fill-rule="evenodd">
        <g>
            <g id="Group-3">
                <mask id="mask-2" fill="white">
                    <use xlink:href="#path-1"></use>
                </mask>
                <g id="Clip-2"></g>
                <path d="M146.892042,88.4033652 L138.422673,99.8693809 C137.964963,100.489238 137.232166,100.859383 136.463304,100.859383 L65.5312376,100.859383 L65.5312376,73.3855781 L136.463304,73.3855781 C137.23255,73.3855781 137.964963,73.7557227 138.422673,74.3755801 L146.891658,85.8415957 C147.457562,86.6076641 147.457562,87.6372969 146.892042,88.4033652 Z M81.2395668,170.411926 C80.3007426,170.274949 79.3415842,170.200689 78.3655446,170.200689 C77.389505,170.200689 76.4303465,170.274949 75.4915223,170.411926 L75.4915223,108.554695 L81.2395668,108.554695 L81.2395668,170.411926 Z M90.521151,189.304688 L66.2095545,189.304688 C66.6262129,182.943742 71.9192327,177.896002 78.3655446,177.896002 C84.8118564,177.896002 90.1044926,182.943742 90.521151,189.304688 Z M75.4915223,65.6902656 L81.2395668,65.6902656 L81.2395668,58.1769473 L75.4915223,58.1769473 L75.4915223,65.6902656 Z M18.5359282,50.4816348 C17.7666832,50.4816348 17.0342698,50.1114902 16.5765594,49.4920176 L8.10757426,38.026002 C7.54167079,37.2599336 7.54167079,36.2303008 8.10719059,35.4642324 L16.5765594,23.9982168 C17.0342698,23.3783594 17.7670668,23.0082148 18.5359282,23.0082148 L89.467995,23.0082148 L89.467995,50.4820195 L18.5359282,50.4820195 L18.5359282,50.4816348 Z M75.4915223,10.5775918 C75.4915223,8.98850977 76.7806312,7.6953125 78.3655446,7.6953125 C79.9504579,7.6953125 81.2395668,8.988125 81.2395668,10.5775918 L81.2395668,15.3129023 L75.4915223,15.3129023 L75.4915223,10.5775918 Z M153.057512,81.2613457 L144.588144,69.7949453 C142.689777,67.2247109 139.652314,65.6902656 136.462921,65.6902656 L88.9128342,65.6902656 L88.9128342,58.1769473 L93.3046287,58.1769473 C95.4232178,58.1769473 97.1412624,56.4543516 97.1412624,54.329291 L97.1412624,19.1601738 C97.1412624,17.0351133 95.4232178,15.3125176 93.3046287,15.3125176 L88.9128342,15.3125176 L88.9128342,10.5775918 C88.9128342,4.74531445 84.1811139,0 78.3655446,0 C72.5499752,0 67.818255,4.74531445 67.818255,10.5775918 L67.818255,15.3129023 L18.5359282,15.3129023 C15.3465347,15.3129023 12.3094554,16.8473477 10.4107054,19.417582 L1.94133663,30.8839824 C-0.647240099,34.389582 -0.647240099,39.1002676 1.9417203,42.6058672 L10.4110891,54.0722676 C12.3094554,56.642502 15.3469183,58.1765625 18.5363119,58.1765625 L67.818255,58.1765625 L67.818255,65.6898809 L61.694604,65.6898809 C59.5760149,65.6898809 57.8579703,67.4124766 57.8579703,69.5375371 L57.8579703,104.706654 C57.8579703,106.831715 59.5760149,108.554311 61.694604,108.554311 L67.818255,108.554311 L67.818255,173.254189 C62.4458168,176.647053 58.8013985,182.545895 58.5305322,189.304687 L43.9467203,189.304687 C41.8281312,189.304687 40.1100866,191.027283 40.1100866,193.152344 C40.1100866,195.277404 41.8281312,197 43.9467203,197 L111.052512,197 C113.171101,197 114.889146,195.277404 114.889146,193.152344 C114.889146,191.027283 113.171101,189.304687 111.052512,189.304687 L98.2001733,189.304687 C97.9293069,182.546279 94.2848886,176.647053 88.9124505,173.254189 L88.9124505,108.554695 L136.462921,108.554695 C139.652314,108.554695 142.689394,107.02025 144.588144,104.450016 L153.057896,92.9836152 C155.646856,89.4780156 155.646856,84.7673301 153.057512,81.2613457 Z" id="Fill-1" fill="#929292" mask="url(#mask-2)"></path>
            </g>
            <path d="M79.6963848,89.4706177 C79.5963798,89.2305576 79.4723736,88.9944986 79.3283664,88.7784446 C79.180359,88.5583896 79.0163508,88.3543386 78.8283414,88.1702926 C78.6443322,87.9862466 78.440322,87.8182046 78.220311,87.6741685 C78.0043002,87.5301325 77.7722886,87.4061015 77.5318766,87.3060765 C77.2882644,87.2060515 77.0362518,87.1300325 76.7838392,87.0780195 C76.2678134,86.9739935 75.7361868,86.9739935 75.220161,87.0780195 C74.9637482,87.1300325 74.7117356,87.2060515 74.4721236,87.3060765 C74.2281114,87.4061015 73.9960998,87.5301325 73.780089,87.6741685 C73.560078,87.8182046 73.3560678,87.9862466 73.1720586,88.1702926 C72.9880494,88.3543386 72.820041,88.5583896 72.6760338,88.7784446 C72.5320266,88.9944986 72.4080204,89.2305576 72.3080154,89.4706177 C72.2080104,89.7106777 72.1320066,89.9627407 72.080004,90.2188047 C72.0280014,90.4748687 72,90.7389347 72,90.9989997 C72,91.2630658 72.0280014,91.5231308 72.080004,91.7831958 C72.1320066,92.0392598 72.2080104,92.2873218 72.3080154,92.5313828 C72.4080204,92.7714429 72.5320266,93.0035009 72.6760338,93.2195549 C72.820041,93.4396099 72.9880494,93.6436609 73.1720586,93.8277069 C73.3560678,94.0117529 73.560078,94.1797949 73.780089,94.327832 C73.9960998,94.471868 74.2281114,94.595899 74.4721236,94.695924 C74.7121356,94.795949 74.9637482,94.871968 75.220161,94.923981 C75.4761738,94.975994 75.740187,95 75.9998,95 C76.259813,95 76.5242262,94.975994 76.7838392,94.923981 C77.0362518,94.871968 77.2882644,94.795949 77.5318766,94.695924 C77.7722886,94.595899 78.0043002,94.471868 78.220311,94.327832 C78.440322,94.1797949 78.6443322,94.0117529 78.8283414,93.8277069 C79.0163508,93.6436609 79.180359,93.4396099 79.3283664,93.2195549 C79.4723736,93.0035009 79.5963798,92.7714429 79.6963848,92.5313828 C79.7963898,92.2873218 79.8723936,92.0392598 79.9243962,91.7831958 C79.9763988,91.5231308 80,91.2630658 80,90.9989997 C80,90.7389347 79.9759988,90.4748687 79.9243962,90.2188047 C79.8727936,89.9627407 79.7963898,89.7106777 79.6963848,89.4706177" id="Fill-4" fill="#929292"></path>
            <path d="M121.131055,87 L90.8689446,87 C88.7325134,87 87,88.7908 87,91 C87,93.2092 88.7325134,95 90.8689446,95 L121.131055,95 C123.267487,95 125,93.2092 125,91 C125,88.7908 123.267874,87 121.131055,87" id="Fill-5" fill="#929292"></path>
            <path d="M82.6923846,39.4698751 C82.5923796,39.2257813 82.4679734,38.9936921 82.3243662,38.7776091 C82.180359,38.5575245 82.0123506,38.3534461 81.8283414,38.1693754 C80.8962948,37.2410187 79.5162258,36.8128542 78.2161608,37.0769556 C77.960148,37.1289756 77.7081354,37.2050048 77.4681234,37.3050433 C77.2281114,37.4050817 76.9960998,37.5291294 76.780089,37.6731847 C76.560078,37.8172401 76.3560678,37.9853047 76.1720586,38.1693754 C75.9836492,38.3534461 75.819641,38.5575245 75.6720336,38.7776091 C75.5280264,38.9936921 75.4036202,39.2257813 75.3036152,39.4698751 C75.2036102,39.7099674 75.1280064,39.9620642 75.0760038,40.2181626 C75.0240012,40.474261 75,40.7383625 75,40.9984624 C75,41.2625639 75.0244012,41.5226639 75.0760038,41.7827638 C75.1280064,42.0388622 75.2036102,42.2869575 75.3036152,42.5310513 C75.4036202,42.7711436 75.5280264,43.0032328 75.6720336,43.2193158 C75.819641,43.4394004 75.9836492,43.6434788 76.1720586,43.8275495 C76.3560678,44.0116202 76.560078,44.1796848 76.780089,44.3277417 C76.9960998,44.471797 77.2281114,44.5958447 77.4681234,44.6958831 C77.7085354,44.7959216 77.960148,44.8719508 78.2161608,44.9239708 C78.4761738,44.9759908 78.7361868,45 79.0002,45 C79.260213,45 79.5246262,44.9759908 79.780239,44.9239708 C80.0362518,44.8719508 80.2886644,44.7959216 80.5282764,44.6958831 C80.7678884,44.5958447 81.0003,44.471797 81.219911,44.3277417 C81.4359218,44.1796848 81.6443322,44.0116202 81.8283414,43.8275495 C82.0123506,43.6434788 82.180359,43.4394004 82.3243662,43.2193158 C82.4679734,43.0032328 82.5923796,42.7711436 82.6923846,42.5310513 C82.7923896,42.2869575 82.8679934,42.0388622 82.919996,41.7827638 C82.9723986,41.5226639 83,41.2625639 83,40.9984624 C83,40.7383625 82.9723986,40.474261 82.919996,40.2181626 C82.8679934,39.9620642 82.7923896,39.7099674 82.6923846,39.4698751" id="Fill-6" fill="#929292"></path>
            <path d="M64.1310554,37 L33.8689446,37 C31.7325134,37 30,38.7908 30,41 C30,43.2092 31.7325134,45 33.8689446,45 L64.1310554,45 C66.2674866,45 68,43.2092 68,41 C68,38.7908 66.2674866,37 64.1310554,37" id="Fill-7" fill="#929292"></path>
        </g>
    </g>
</svg>