<?xml version="1.0" encoding="UTF-8"?>
<svg width="119px" height="119px" viewBox="0 0 119 119" version="1.1" xmlns="http://www.w3.org/2000/svg" xmlns:xlink="http://www.w3.org/1999/xlink">
    <!-- Generator: Sketch 50.2 (55047) - http://www.bohemiancoding.com/sketch -->
    <title>earth-globe</title>
    <desc>Created with Sketch.</desc>
    <defs>
        <polygon id="path-1" points="0 0 119 0 119 119 0 119"></polygon>
    </defs>
    <g id="earth-globe" stroke="none" stroke-width="1" fill="none" fill-rule="evenodd">
        <g>
            <mask id="mask-2" fill="white">
                <use xlink:href="#path-1"></use>
            </mask>
            <g id="Clip-2"></g>
            <path d="M101.562554,17.4374464 C90.3434643,6.19225 75.3828571,0 59.5,0 C43.6171429,0 28.6565357,6.19225 17.4374464,17.4374464 C6.21714286,28.6814286 0,43.6171429 0,59.5 C0,75.3828571 6.19225,90.3434643 17.4374464,101.562554 C28.6814286,112.782857 43.6171429,119 59.5,119 C75.3828571,119 90.3434643,112.80775 101.562554,101.562554 C112.782857,90.3185714 119,75.3828571 119,59.5 C119,43.6171429 112.80775,28.6565357 101.562554,17.4374464 Z M113.607964,56.8282679 L90.5365357,56.8282679 C90.3185714,47.648875 89.0317321,38.8085714 86.7728571,30.9642857 C91.1685714,28.7054107 95.2728571,25.8639821 99.0365357,22.5128571 C107.536536,31.5951071 112.95225,43.5934643 113.607964,56.8282679 Z M62.1717321,62.1717321 L85.2182679,62.1717321 C85.0236786,70.6231607 83.8579643,78.7103036 81.8434643,85.9474464 C75.6260179,83.4454107 68.9960179,81.9879643 62.1717321,81.6725536 L62.1717321,62.1717321 Z M95.2006071,18.79775 C92.091125,21.5417321 88.6914286,23.8731607 85.0971429,25.8154107 C84.1745893,23.241125 83.13,20.8125536 81.9642857,18.5296964 C79.6565357,13.9642857 77.0348929,10.2242857 74.1436786,7.35796429 C82.0365357,9.56857143 89.2014286,13.5268393 95.2006071,18.79775 Z M62.1717321,6.16857143 C67.7331607,7.40653571 72.9779643,12.5317321 77.2042857,20.8860179 C78.3451071,23.1436786 79.3660179,25.5485714 80.2636786,28.0982679 C74.55775,30.4542857 68.4614286,31.8382679 62.1717321,32.1548929 L62.1717321,6.16857143 Z M81.8671429,33.2231607 C83.8579643,40.4117321 85,48.4506071 85.1945893,56.8531607 L62.1717321,56.8531607 L62.1717321,37.5220357 C69.0196964,37.2054107 75.6496964,35.7242857 81.8671429,33.2231607 Z M56.8282679,56.8282679 L33.7817321,56.8282679 C33.9763214,48.4257143 35.1171429,40.3868393 37.1079643,33.1982679 C43.3254107,35.7242857 49.9803036,37.1814286 56.8045893,37.4731607 L56.8045893,56.8282679 L56.8282679,56.8282679 Z M56.8531607,6.16857143 L56.8531607,32.1548929 C50.5625536,31.8382679 44.44225,30.4542857 38.76,28.0982679 C39.658875,25.5485714 40.6785714,23.1436786 41.8206071,20.8860179 C46.0457143,12.5317321 51.2917321,7.40653571 56.8531607,6.16857143 Z M44.88,7.35796429 C41.99,10.2242857 39.3671429,13.9879643 37.0593929,18.5296964 C35.9185714,20.8125536 34.8739821,23.241125 33.92775,25.8154107 C30.3334643,23.8731607 26.9574464,21.5417321 23.8242857,18.79775 C29.82225,13.5268393 36.9871429,9.56857143 44.88,7.35796429 Z M19.9871429,22.5128571 C23.7508214,25.8639821 27.8563214,28.6814286 32.2508214,30.9642857 C29.9931607,38.8334643 28.6814286,47.648875 28.4871429,56.8282679 L5.41571429,56.8282679 C6.07142857,43.5934643 11.4871429,31.5951071 19.9871429,22.5128571 Z M5.41571429,62.1717321 L28.4871429,62.1717321 C28.7054107,71.4245893 30.0168393,80.2885714 32.2993929,88.1814286 C27.9285714,90.4406071 23.8242857,93.2331607 20.0842857,96.5842857 C11.5120357,87.4771429 6.07142857,75.4554107 5.41571429,62.1717321 Z M23.9217321,100.299393 C27.0296964,97.5803036 30.4057143,95.2491786 33.9763214,93.3303036 C34.898875,95.8314286 35.9185714,98.2363214 37.0593929,100.470304 C39.3671429,105.035714 41.99,108.775714 44.88,111.665714 C37.0357143,109.455411 29.8957143,105.522036 23.9217321,100.299393 Z M56.8531607,112.831429 C51.2917321,111.593464 46.0457143,106.468268 41.8206071,98.1139821 C40.70225,95.9048929 39.7074464,93.5485714 38.8085714,91.04775 C44.491125,88.6914286 50.5874464,87.30775 56.8531607,87.0160179 L56.8531607,112.831429 Z M37.1814286,85.9474464 C35.1657143,78.7103036 34,70.6231607 33.8054107,62.1717321 L56.8531607,62.1717321 L56.8531607,81.6725536 C50.028875,81.9642857 43.398875,83.4217321 37.1814286,85.9474464 Z M62.1954107,112.831429 L62.1954107,87.0160179 C68.4614286,87.3314286 74.55775,88.6914286 80.24,91.04775 C79.341125,93.5485714 78.3451071,95.9048929 77.2279643,98.1139821 C73.0028571,106.468268 67.7568393,111.593464 62.1954107,112.831429 Z M74.1685714,111.642036 C77.0585714,108.775714 79.6814286,105.012036 81.9879643,100.445411 C83.13,98.2114286 84.1496964,95.80775 85.07225,93.3054107 C88.6428571,95.2242857 92.018875,97.5554107 95.1268393,100.275714 C89.1528571,105.522036 82.0128571,109.455411 74.1685714,111.642036 Z M98.9879643,96.5842857 C95.2491786,93.2568393 91.1436786,90.4406071 86.7728571,88.1814286 C89.0554107,80.2885714 90.3671429,71.3996964 90.5851071,62.1717321 L113.656536,62.1717321 C112.977143,75.4554107 107.536536,87.4771429 98.9879643,96.5842857 Z" id="Fill-1" fill="#C6C6C6" mask="url(#mask-2)"></path>
        </g>
    </g>
</svg>